# xmcd
#
# Track frame offsets:
#	150
#	22259
#	42124
#	61471
#	81269
#	107466
#	124592
#	141244
#	158488
#	174315
#	192985
#	208869
#	228712
#	247021
#	273361
#	293255
#	306725
#
# Disc length: 4297 seconds
#
# Revision: 1
# Processed by: cddbd v1.5.1PL0 Copyright (c) Steve Scherf et al.
# Submitted via: audiograbber 1.83.01
#
DISCID=f510c711
DTITLE=Bonnie Tyler - notes from America
DYEAR=1988
DGENRE=Blues
TTITLE0=notes from America
TTITLE1=hide your heart
TTITLE2=don`t turn around
TTITLE3=save up all your tears
TTITLE4=to love somebody
TTITLE5=take another look at my heart
TTITLE6=shy with you
TTITLE7=weak in the presence of beauty
TTITLE8=ordinary girl
TTITLE9=you got me wrong
TTITLE10=without you
TTITLE11=sleep like breathing
TTITLE12=is this love ?
TTITLE13=blow, wind, blow
TTITLE14=glorious love
TTITLE15=when I say (no giveaway)
TTITLE16=stay
EXTD=
EXTT0=
EXTT1=
EXTT2=
EXTT3=
EXTT4=
EXTT5=
EXTT6=
EXTT7=
EXTT8=
EXTT9=
EXTT10=
EXTT11=
EXTT12=
EXTT13=
EXTT14=
EXTT15=
EXTT16=
PLAYORDER=
